<svg xmlns="http://www.w3.org/2000/svg" version="1.1" xmlns:xlink="http://www.w3.org/1999/xlink" width="108" height="125"><svg xmlns="http://www.w3.org/2000/svg" version="1.1" xmlns:xlink="http://www.w3.org/1999/xlink" width="108" height="125"><svg width="108" height="125" viewBox="0 0 108 125" fill="none" xmlns="http://www.w3.org/2000/svg">
<g clip-path="url(#clip0_8_1176)">
<path d="M100.829 58.4715C99.8677 58.3154 98.9073 58.1548 97.9461 57.9951C96.0086 57.6713 94.072 57.351 92.1231 57.0842C91.8517 57.0465 91.5821 56.9939 91.3134 56.9412C88.1265 56.2936 86.6525 53.1943 86.5759 51.7526C86.5803 51.7351 86.5803 51.714 86.5785 51.6912C86.5318 50.1968 87.6737 47.6205 90.5345 46.6965H90.5292C94.2183 45.8691 97.9047 45.0319 101.598 44.2194C102.268 44.0711 102.968 44.0325 103.654 43.9526C103.907 43.9219 104.197 43.8798 104.217 43.5981C104.236 43.2357 103.876 43.2322 103.619 43.1445C101.969 42.5609 100.289 42.8549 98.6501 43.1067C98.5655 43.1181 98.4774 43.133 98.3937 43.1488C94.8835 43.6867 91.3768 44.2887 87.805 44.014C85.7723 43.8579 84.1679 42.9997 83.2762 41.0824C82.641 39.7179 82.893 38.6579 84.0992 37.7233C84.8384 37.1512 85.604 36.6142 86.3618 36.0684C86.5917 35.9043 86.871 35.7595 86.7212 35.4199C86.5794 35.1075 86.3115 35.176 86.0093 35.2102C85.1177 35.3094 84.2216 35.3857 83.3256 35.1304C82.7705 34.9706 82.7018 34.7908 82.9961 34.2608C83.5362 33.292 84.3855 32.64 85.1855 31.9538C87.7045 29.7996 89.879 27.2988 92.3099 25.0524C94.0324 23.4624 95.702 21.8189 97.4051 20.2104C97.6271 20.0007 97.9064 19.848 98.1672 19.6804C98.4236 19.5128 98.799 19.4022 98.4924 18.9942C98.2818 18.7082 98.0448 18.666 97.6888 18.8573C95.9161 19.8033 94.1557 20.7562 92.5249 21.9382C89.1636 24.3671 85.5961 26.4107 81.4304 27.0662C79.4013 27.383 77.3457 27.4286 75.7413 25.6482C74.9906 24.8128 75.0981 23.7765 74.7959 22.8455C74.1757 20.9396 74.2329 20.9089 72.5721 21.7934C72.025 22.083 71.4928 22.4033 70.9835 22.7507C69.8813 23.5098 68.7632 23.4633 67.661 22.8192C66.0222 21.8618 64.5755 20.6843 63.8671 18.8468C63.5535 18.0307 63.5147 17.169 63.4424 16.3117C63.4046 15.866 63.3543 15.4193 63.2548 14.9815C63.2398 14.9165 63.2583 14.8402 63.2398 14.7753C63.0601 14.2417 63.0636 13.4064 62.4477 13.3686C61.8812 13.3344 62.0116 14.1575 61.8195 14.6041C61.2186 16.0222 60.6133 17.4525 59.8671 18.7985C59.4309 19.5839 58.5692 20.0832 57.6503 19.8313C56.7507 19.5874 56.2873 18.7406 56.1877 17.8561C56.0802 16.8988 56.0732 15.9081 56.1912 14.9551C56.3481 13.6854 57.2406 12.8922 58.3463 12.378C58.6644 12.2297 58.9781 12.1147 59.208 11.8479C59.5833 11.4092 59.5675 11.017 59.001 10.78C56.6696 9.79638 55.5595 7.8975 55.1577 5.54495C54.9093 4.08832 54.8361 2.60185 54.6872 1.12592C54.6388 0.624871 54.6714 0.00273154 54 0.000976562C53.3286 0.00273154 53.3612 0.624871 53.3128 1.12592C53.1639 2.60185 53.0907 4.08832 52.8423 5.54495C52.4405 7.8975 51.3304 9.79638 48.999 10.78C48.4325 11.0161 48.4175 11.4092 48.792 11.8479C49.0219 12.1147 49.3356 12.2297 49.6537 12.378C50.7603 12.893 51.6519 13.6854 51.8088 14.9551C51.9277 15.9081 51.9198 16.8997 51.8123 17.8561C51.7127 18.7406 51.2493 19.5874 50.3497 19.8313C49.4308 20.0832 48.57 19.5839 48.1329 18.7985C47.3867 17.4525 46.7814 16.023 46.1805 14.6041C45.9893 14.1584 46.1188 13.3344 45.5523 13.3686C44.9355 13.4064 44.9399 14.2417 44.7602 14.7753C44.7408 14.8402 44.7602 14.9165 44.7452 14.9815C44.6457 15.4202 44.5963 15.866 44.5576 16.3117C44.4844 17.1699 44.4465 18.0316 44.1329 18.8468C43.4245 20.6843 41.9778 21.8627 40.339 22.8192C39.2368 23.4633 38.1187 23.5089 37.0165 22.7507C36.5072 22.4041 35.975 22.0839 35.4279 21.7934C33.7662 20.9089 33.8235 20.9396 33.2041 22.8455C32.9019 23.7757 33.0085 24.8128 32.2587 25.6482C30.6542 27.4286 28.5987 27.383 26.5696 27.0662C22.4048 26.4107 18.8364 24.3671 15.4751 21.9382C13.8443 20.7562 12.083 19.8033 10.3112 18.8573C9.95523 18.6669 9.71734 18.709 9.50764 18.9942C9.20103 19.4022 9.57637 19.5128 9.83276 19.6804C10.0927 19.848 10.3729 20.0007 10.5949 20.2104C12.298 21.8197 13.9676 23.4624 15.6901 25.0524C18.121 27.2979 20.2955 29.7996 22.8145 31.9538C23.6145 32.64 24.4647 33.292 25.0039 34.2608C25.2991 34.7908 25.2295 34.9698 24.6744 35.1304C23.7784 35.3857 22.8832 35.3094 21.9907 35.2102C21.6885 35.176 21.4206 35.1075 21.2788 35.4199C21.1299 35.7595 21.4092 35.9043 21.6382 36.0684C22.396 36.6133 23.1616 37.1512 23.9008 37.7233C25.107 38.6579 25.359 39.717 24.7238 41.0824C23.8321 43.0005 22.2277 43.8579 20.195 44.014C16.6232 44.2887 13.1165 43.6859 9.60632 43.1488C9.52174 43.1339 9.43451 43.1181 9.34993 43.1067C7.71114 42.8549 6.03094 42.5618 4.38069 43.1445C4.1243 43.2322 3.76394 43.2357 3.78332 43.5981C3.80271 43.8798 4.09346 43.9219 4.34633 43.9526C5.0318 44.0325 5.73225 44.0711 6.40187 44.2194C10.0962 45.0319 13.7817 45.8691 17.4708 46.6965H17.4655C20.3263 47.6205 21.4691 50.1968 21.4215 51.6912C21.4197 51.714 21.4206 51.7342 21.4241 51.7526C21.3475 53.1943 19.8735 56.2927 16.6866 56.9412C16.417 56.993 16.1474 57.0465 15.8769 57.0842C13.928 57.351 11.9914 57.6713 10.0539 57.9951C9.09266 58.1548 8.13229 58.3154 7.17104 58.4715C4.78334 58.8585 2.4159 59.3473 0 59.5596C0.0696047 59.6579 0.14009 59.7571 0.200003 59.8589C0.33745 60.0932 8.55344 60.0387 10.7658 60.2099C14.039 60.4617 17.3157 60.6784 20.5774 61.0294C20.8417 61.0584 21.099 61.1023 21.3581 61.1453C23.3202 61.5533 26.1229 62.6466 27.0004 65.5853C28.3784 70.2036 23.5299 77.6192 22.5052 79.3093C21.9766 79.9165 21.4497 80.5246 20.8955 81.1107C18.1739 83.9968 15.9492 87.3067 13.6337 90.5245C13.446 90.7912 13.0055 91.1001 13.4117 91.3747C13.6795 91.5573 14.135 91.3475 14.3764 90.9781C15.2381 89.6549 16.5659 88.7782 17.6761 87.7033C19.2805 86.144 21.003 84.6909 22.6374 83.1658C25.5625 80.436 28.7432 78.0834 32.0737 75.9064C32.0737 75.9064 38.931 71.812 36.6279 82.7657C36.4314 83.6634 36.2297 84.5593 35.99 85.4455C35.7645 86.273 35.3697 87.0505 35.2437 87.9122C35.1979 88.2439 35.1213 88.5492 35.4578 88.7361C35.7944 88.9195 36.116 88.7247 36.2658 88.4694C37.2499 86.8074 38.7046 85.4842 39.5275 83.6879C39.6191 83.4896 39.7152 83.2878 39.8183 83.093C40.2703 82.2348 40.8747 81.4381 41.924 81.0879C43.2183 80.6536 44.206 81.145 44.0835 82.4068C43.8994 84.2943 44.7267 86.0598 44.5505 87.9236C44.5161 88.2816 44.5769 88.694 45.0448 88.6747C45.4007 88.6633 45.5232 88.2939 45.5003 87.9806C45.443 87.1917 45.7955 86.4933 45.9787 85.7658C46.3312 84.3855 47.1735 83.7871 48.5629 83.7906C48.666 83.7906 48.7999 83.8476 48.8651 83.802C49.4739 83.3747 49.6731 83.7599 49.7568 84.2636C50.0131 85.8571 50.6449 87.3523 50.9894 88.9072C51.5832 91.595 51.5594 94.3635 51.659 97.1082C51.6934 98.1112 51.6132 99.1212 51.7207 100.116C52.2264 104.828 52.6088 109.553 52.881 114.284C53.0766 117.617 52.9841 120.968 53.5207 124.277C53.5727 124.603 53.5207 124.996 54.0009 124.999C54.4811 124.996 54.4291 124.603 54.4811 124.277C55.0168 120.968 54.9251 117.616 55.1207 114.284C55.393 109.553 55.7754 104.828 56.2811 100.116C56.3886 99.1212 56.3075 98.1112 56.3428 97.1082C56.4423 94.3635 56.4194 91.595 57.0124 88.9072C57.3569 87.3515 57.9886 85.8571 58.245 84.2636C58.3296 83.7599 58.5287 83.3755 59.1367 83.802C59.2018 83.8476 59.3358 83.7906 59.4389 83.7906C60.8283 83.7871 61.6706 84.3855 62.023 85.7658C62.2072 86.4941 62.5587 87.1917 62.5015 87.9806C62.4786 88.293 62.601 88.6633 62.957 88.6747C63.4239 88.694 63.4856 88.2825 63.4513 87.9236C63.275 86.0589 64.1024 84.2943 63.9182 82.4068C63.7957 81.145 64.7834 80.6527 66.0777 81.0879C67.1271 81.4389 67.7315 82.2357 68.1835 83.093C68.2866 83.2878 68.3826 83.4896 68.4742 83.6879C69.2972 85.4842 70.7518 86.8065 71.736 88.4694C71.8849 88.7247 72.2065 88.9195 72.5439 88.7361C72.8805 88.5492 72.8038 88.2439 72.758 87.9122C72.632 87.0505 72.2373 86.273 72.0117 85.4455C71.7721 84.5593 71.5703 83.6634 71.3739 82.7657C69.0716 71.812 75.9281 75.9064 75.9281 75.9064C79.2586 78.0834 82.4401 80.436 85.3644 83.1658C86.9988 84.6909 88.7221 86.1432 90.3257 87.7033C91.4359 88.7782 92.7645 89.6557 93.6253 90.9781C93.8667 91.3475 94.3222 91.5573 94.5901 91.3747C94.9963 91.1001 94.5557 90.7912 94.3681 90.5245C92.0517 87.3067 89.8279 83.9968 87.1063 81.1107C86.5521 80.5237 86.0252 79.9156 85.4966 79.3093C84.4719 77.6201 79.6233 70.2036 81.0013 65.5853C81.878 62.6466 84.6816 61.5533 86.6437 61.1453C86.9019 61.1031 87.16 61.0584 87.4243 61.0294C90.6861 60.6784 93.9628 60.4617 97.2359 60.2099C99.4483 60.0379 107.664 60.0932 107.802 59.8589C107.862 59.7562 107.932 59.6579 108.002 59.5596C105.586 59.3473 103.218 58.8585 100.831 58.4715H100.829ZM61.5843 73.5319C55.3119 74.6156 55.4485 58.955 55.4485 58.955C55.6132 57.079 55.437 55.1915 55.7278 53.3163C56.1489 50.6057 56.7886 49.0535 59.6362 48.5963C60.8997 48.3945 62.1781 48.1198 63.4909 48.1312C63.935 48.1347 64.6892 48.2383 64.7544 47.5591C64.8231 46.7773 64.0962 46.6518 63.5103 46.6483C61.8715 46.6369 60.3287 46.271 58.7366 45.8892C56.3251 45.3136 55.5709 43.6745 55.1154 41.6343C54.9436 40.8604 54.8282 40.0785 54.6908 39.2975C54.6053 38.8377 54.5551 38.2454 54 38.227C53.4449 38.2454 53.3947 38.8377 53.3092 39.2975C53.1718 40.0794 53.0564 40.8604 52.8846 41.6343C52.429 43.6745 51.6749 45.3136 49.2634 45.8892C47.6713 46.271 46.1276 46.6369 44.4897 46.6483C43.9038 46.6518 43.1769 46.7781 43.2456 47.5591C43.3108 48.2374 44.065 48.1347 44.5091 48.1312C45.8219 48.1198 47.1012 48.3945 48.3638 48.5963C51.2123 49.0535 51.8511 50.6057 52.2722 53.3163C52.563 55.1924 52.3868 57.0798 52.5515 58.955C52.5515 58.955 52.689 74.6147 46.4157 73.5319C36.2579 70.5581 28.8401 61.2111 28.8401 50.1319C28.8401 36.6598 39.8059 25.7395 53.3321 25.7395C53.5559 25.7395 53.778 25.75 54 25.7561C54.2229 25.75 54.4441 25.7395 54.6679 25.7395C68.1949 25.7395 79.1599 36.6607 79.1599 50.1319C79.1599 61.2102 71.7413 70.5581 61.5843 73.5319Z" fill="black"></path>
</g>
<defs>
<clipPath id="clip0_8_1176">
<rect width="108" height="125" fill="white"></rect>
</clipPath>
</defs>
</svg></svg><style>@media (prefers-color-scheme: light) { :root { filter: none; } }
@media (prefers-color-scheme: dark) { :root { filter: none; } }
</style></svg>